<svg xmlns="http://www.w3.org/2000/svg" viewBox="0 0 1600 1000"
     width="1600" height="1000" role="img" aria-label="">
  <!-- A terminal, scrolled back a long way.
       Bolder than standalone art: the chat's scrim lets about a third through.
       Generated by a seeded script. -->
  <defs>
    <linearGradient id="sky" x1="0" y1="0" x2="0" y2="1">
      <stop offset="0" stop-color="#10161c"/><stop offset="1" stop-color="#070a0e"/>
    </linearGradient>
    <radialGradient id="phos" cx="0.5" cy="0.5" r="0.5">
      <stop offset="0" stop-color="#7ee787" stop-opacity="0.22"/>
      <stop offset="1" stop-color="#7ee787" stop-opacity="0"/>
    </radialGradient>
  </defs>
  <rect width="1600" height="1000" fill="url(#sky)"/>
  <circle cx="300" cy="260" r="520" fill="url(#phos)"/>
    <rect x="70" y="60" width="61" height="15" rx="3" fill="#9aa7b4" opacity="0.38"/>
    <rect x="156" y="60" width="73" height="15" rx="3" fill="#9aa7b4" opacity="0.43"/>
    <rect x="252" y="60" width="172" height="15" rx="3" fill="#7ee787" opacity="0.47"/>
    <rect x="451" y="60" width="86" height="15" rx="3" fill="#9aa7b4" opacity="0.29"/>
    <rect x="556" y="60" width="101" height="15" rx="3" fill="#56b6c2" opacity="0.30"/>
    <rect x="678" y="60" width="160" height="15" rx="3" fill="#9aa7b4" opacity="0.54"/>
    <rect x="863" y="60" width="81" height="15" rx="3" fill="#7ee787" opacity="0.59"/>
    <rect x="969" y="60" width="187" height="15" rx="3" fill="#9aa7b4" opacity="0.39"/>
    <rect x="1180" y="60" width="132" height="15" rx="3" fill="#e5c07b" opacity="0.59"/>
    <rect x="70" y="98" width="112" height="15" rx="3" fill="#56b6c2" opacity="0.38"/>
    <rect x="203" y="98" width="80" height="15" rx="3" fill="#9aa7b4" opacity="0.52"/>
    <rect x="310" y="98" width="51" height="15" rx="3" fill="#e5c07b" opacity="0.38"/>
    <rect x="387" y="98" width="157" height="15" rx="3" fill="#7ee787" opacity="0.38"/>
    <rect x="577" y="98" width="78" height="15" rx="3" fill="#56b6c2" opacity="0.41"/>
    <rect x="690" y="98" width="97" height="15" rx="3" fill="#7ee787" opacity="0.40"/>
    <rect x="825" y="98" width="80" height="15" rx="3" fill="#9aa7b4" opacity="0.57"/>
    <rect x="926" y="98" width="165" height="15" rx="3" fill="#e5c07b" opacity="0.27"/>
    <rect x="1128" y="98" width="44" height="15" rx="3" fill="#e5c07b" opacity="0.36"/>
  <path d="M70 136 l18 14 -18 14" stroke="#7ee787" stroke-width="4" fill="none" stroke-linecap="round" opacity="0.9"/>
    <rect x="108" y="136" width="168" height="15" rx="3" fill="#e5c07b" opacity="0.33"/>
    <rect x="313" y="136" width="184" height="15" rx="3" fill="#7ee787" opacity="0.27"/>
    <rect x="525" y="136" width="113" height="15" rx="3" fill="#7ee787" opacity="0.43"/>
    <rect x="665" y="136" width="174" height="15" rx="3" fill="#9aa7b4" opacity="0.42"/>
    <rect x="130" y="174" width="66" height="15" rx="3" fill="#e5c07b" opacity="0.45"/>
    <rect x="223" y="174" width="169" height="15" rx="3" fill="#7ee787" opacity="0.35"/>
    <rect x="430" y="174" width="173" height="15" rx="3" fill="#7ee787" opacity="0.28"/>
    <rect x="627" y="174" width="114" height="15" rx="3" fill="#7ee787" opacity="0.52"/>
    <rect x="778" y="174" width="43" height="15" rx="3" fill="#9aa7b4" opacity="0.52"/>
    <rect x="70" y="212" width="112" height="15" rx="3" fill="#e5c07b" opacity="0.41"/>
    <rect x="218" y="212" width="97" height="15" rx="3" fill="#9aa7b4" opacity="0.29"/>
    <rect x="343" y="212" width="69" height="15" rx="3" fill="#56b6c2" opacity="0.57"/>
    <rect x="70" y="250" width="165" height="15" rx="3" fill="#56b6c2" opacity="0.32"/>
    <rect x="274" y="250" width="163" height="15" rx="3" fill="#56b6c2" opacity="0.57"/>
    <rect x="474" y="250" width="142" height="15" rx="3" fill="#7ee787" opacity="0.36"/>
    <rect x="641" y="250" width="180" height="15" rx="3" fill="#e5c07b" opacity="0.25"/>
    <rect x="856" y="250" width="162" height="15" rx="3" fill="#56b6c2" opacity="0.36"/>
    <rect x="1052" y="250" width="96" height="15" rx="3" fill="#7ee787" opacity="0.29"/>
    <rect x="1182" y="250" width="91" height="15" rx="3" fill="#7ee787" opacity="0.29"/>
    <rect x="190" y="288" width="152" height="15" rx="3" fill="#9aa7b4" opacity="0.54"/>
    <rect x="380" y="288" width="187" height="15" rx="3" fill="#9aa7b4" opacity="0.28"/>
    <rect x="597" y="288" width="62" height="15" rx="3" fill="#9aa7b4" opacity="0.32"/>
    <rect x="687" y="288" width="160" height="15" rx="3" fill="#7ee787" opacity="0.51"/>
  <path d="M70 326 l18 14 -18 14" stroke="#7ee787" stroke-width="4" fill="none" stroke-linecap="round" opacity="0.9"/>
    <rect x="108" y="326" width="168" height="15" rx="3" fill="#7ee787" opacity="0.27"/>
    <rect x="296" y="326" width="42" height="15" rx="3" fill="#7ee787" opacity="0.55"/>
    <rect x="368" y="326" width="104" height="15" rx="3" fill="#9aa7b4" opacity="0.48"/>
    <rect x="492" y="326" width="136" height="15" rx="3" fill="#9aa7b4" opacity="0.54"/>
    <rect x="666" y="326" width="61" height="15" rx="3" fill="#56b6c2" opacity="0.58"/>
    <rect x="130" y="364" width="46" height="15" rx="3" fill="#9aa7b4" opacity="0.41"/>
    <rect x="200" y="364" width="166" height="15" rx="3" fill="#7ee787" opacity="0.44"/>
    <rect x="384" y="364" width="172" height="15" rx="3" fill="#7ee787" opacity="0.53"/>
    <rect x="590" y="364" width="128" height="15" rx="3" fill="#e5c07b" opacity="0.41"/>
    <rect x="741" y="364" width="85" height="15" rx="3" fill="#9aa7b4" opacity="0.26"/>
    <rect x="863" y="364" width="48" height="15" rx="3" fill="#e5c07b" opacity="0.52"/>
    <rect x="931" y="364" width="143" height="15" rx="3" fill="#e5c07b" opacity="0.58"/>
    <rect x="1107" y="364" width="53" height="15" rx="3" fill="#56b6c2" opacity="0.34"/>
  <path d="M70 402 l18 14 -18 14" stroke="#7ee787" stroke-width="4" fill="none" stroke-linecap="round" opacity="0.9"/>
    <rect x="108" y="402" width="85" height="15" rx="3" fill="#e5c07b" opacity="0.35"/>
    <rect x="222" y="402" width="73" height="15" rx="3" fill="#7ee787" opacity="0.50"/>
    <rect x="323" y="402" width="42" height="15" rx="3" fill="#7ee787" opacity="0.53"/>
    <rect x="392" y="402" width="46" height="15" rx="3" fill="#7ee787" opacity="0.52"/>
    <rect x="470" y="402" width="149" height="15" rx="3" fill="#9aa7b4" opacity="0.48"/>
    <rect x="652" y="402" width="167" height="15" rx="3" fill="#7ee787" opacity="0.49"/>
    <rect x="130" y="440" width="137" height="15" rx="3" fill="#7ee787" opacity="0.38"/>
    <rect x="286" y="440" width="68" height="15" rx="3" fill="#9aa7b4" opacity="0.25"/>
    <rect x="386" y="440" width="181" height="15" rx="3" fill="#e5c07b" opacity="0.36"/>
    <rect x="594" y="440" width="54" height="15" rx="3" fill="#9aa7b4" opacity="0.54"/>
    <rect x="670" y="440" width="81" height="15" rx="3" fill="#7ee787" opacity="0.57"/>
    <rect x="772" y="440" width="81" height="15" rx="3" fill="#7ee787" opacity="0.45"/>
  <path d="M70 478 l18 14 -18 14" stroke="#7ee787" stroke-width="4" fill="none" stroke-linecap="round" opacity="0.9"/>
    <rect x="108" y="478" width="167" height="15" rx="3" fill="#e5c07b" opacity="0.54"/>
    <rect x="294" y="478" width="189" height="15" rx="3" fill="#56b6c2" opacity="0.50"/>
    <rect x="513" y="478" width="106" height="15" rx="3" fill="#9aa7b4" opacity="0.53"/>
    <rect x="643" y="478" width="129" height="15" rx="3" fill="#e5c07b" opacity="0.56"/>
    <rect x="802" y="478" width="154" height="15" rx="3" fill="#56b6c2" opacity="0.25"/>
    <rect x="995" y="478" width="114" height="15" rx="3" fill="#56b6c2" opacity="0.42"/>
    <rect x="130" y="516" width="80" height="15" rx="3" fill="#56b6c2" opacity="0.27"/>
    <rect x="247" y="516" width="67" height="15" rx="3" fill="#7ee787" opacity="0.43"/>
    <rect x="337" y="516" width="116" height="15" rx="3" fill="#9aa7b4" opacity="0.43"/>
    <rect x="472" y="516" width="69" height="15" rx="3" fill="#56b6c2" opacity="0.31"/>
    <rect x="568" y="516" width="161" height="15" rx="3" fill="#56b6c2" opacity="0.36"/>
    <rect x="70" y="554" width="54" height="15" rx="3" fill="#e5c07b" opacity="0.40"/>
    <rect x="160" y="554" width="153" height="15" rx="3" fill="#e5c07b" opacity="0.26"/>
    <rect x="332" y="554" width="180" height="15" rx="3" fill="#9aa7b4" opacity="0.33"/>
    <rect x="542" y="554" width="55" height="15" rx="3" fill="#e5c07b" opacity="0.50"/>
    <rect x="624" y="554" width="117" height="15" rx="3" fill="#e5c07b" opacity="0.34"/>
    <rect x="767" y="554" width="75" height="15" rx="3" fill="#56b6c2" opacity="0.57"/>
    <rect x="861" y="554" width="177" height="15" rx="3" fill="#7ee787" opacity="0.31"/>
    <rect x="1069" y="554" width="111" height="15" rx="3" fill="#7ee787" opacity="0.59"/>
  <path d="M70 592 l18 14 -18 14" stroke="#7ee787" stroke-width="4" fill="none" stroke-linecap="round" opacity="0.9"/>
    <rect x="108" y="592" width="149" height="15" rx="3" fill="#7ee787" opacity="0.39"/>
    <rect x="297" y="592" width="47" height="15" rx="3" fill="#7ee787" opacity="0.52"/>
    <rect x="382" y="592" width="96" height="15" rx="3" fill="#e5c07b" opacity="0.48"/>
    <rect x="511" y="592" width="52" height="15" rx="3" fill="#7ee787" opacity="0.34"/>
    <rect x="596" y="592" width="188" height="15" rx="3" fill="#9aa7b4" opacity="0.53"/>
    <rect x="806" y="592" width="85" height="15" rx="3" fill="#7ee787" opacity="0.54"/>
    <rect x="923" y="592" width="75" height="15" rx="3" fill="#e5c07b" opacity="0.53"/>
    <rect x="1037" y="592" width="153" height="15" rx="3" fill="#9aa7b4" opacity="0.27"/>
    <rect x="130" y="630" width="42" height="15" rx="3" fill="#7ee787" opacity="0.34"/>
    <rect x="190" y="630" width="90" height="15" rx="3" fill="#7ee787" opacity="0.40"/>
    <rect x="304" y="630" width="120" height="15" rx="3" fill="#9aa7b4" opacity="0.33"/>
    <rect x="455" y="630" width="153" height="15" rx="3" fill="#9aa7b4" opacity="0.30"/>
    <rect x="632" y="630" width="57" height="15" rx="3" fill="#56b6c2" opacity="0.53"/>
    <rect x="725" y="630" width="119" height="15" rx="3" fill="#9aa7b4" opacity="0.44"/>
    <rect x="866" y="630" width="102" height="15" rx="3" fill="#56b6c2" opacity="0.30"/>
    <rect x="70" y="668" width="110" height="15" rx="3" fill="#7ee787" opacity="0.59"/>
    <rect x="219" y="668" width="183" height="15" rx="3" fill="#7ee787" opacity="0.40"/>
    <rect x="436" y="668" width="48" height="15" rx="3" fill="#e5c07b" opacity="0.36"/>
    <rect x="518" y="668" width="180" height="15" rx="3" fill="#56b6c2" opacity="0.25"/>
    <rect x="70" y="706" width="45" height="15" rx="3" fill="#56b6c2" opacity="0.33"/>
    <rect x="150" y="706" width="51" height="15" rx="3" fill="#56b6c2" opacity="0.49"/>
    <rect x="221" y="706" width="41" height="15" rx="3" fill="#e5c07b" opacity="0.51"/>
    <rect x="291" y="706" width="187" height="15" rx="3" fill="#7ee787" opacity="0.56"/>
    <rect x="505" y="706" width="186" height="15" rx="3" fill="#56b6c2" opacity="0.51"/>
    <rect x="721" y="706" width="79" height="15" rx="3" fill="#9aa7b4" opacity="0.45"/>
    <rect x="839" y="706" width="45" height="15" rx="3" fill="#56b6c2" opacity="0.31"/>
    <rect x="920" y="706" width="177" height="15" rx="3" fill="#7ee787" opacity="0.56"/>
    <rect x="1123" y="706" width="189" height="15" rx="3" fill="#9aa7b4" opacity="0.56"/>
    <rect x="70" y="744" width="62" height="15" rx="3" fill="#7ee787" opacity="0.49"/>
    <rect x="152" y="744" width="149" height="15" rx="3" fill="#e5c07b" opacity="0.41"/>
    <rect x="321" y="744" width="150" height="15" rx="3" fill="#7ee787" opacity="0.53"/>
    <rect x="499" y="744" width="52" height="15" rx="3" fill="#7ee787" opacity="0.45"/>
    <rect x="576" y="744" width="165" height="15" rx="3" fill="#7ee787" opacity="0.56"/>
    <rect x="130" y="782" width="92" height="15" rx="3" fill="#9aa7b4" opacity="0.50"/>
    <rect x="251" y="782" width="105" height="15" rx="3" fill="#9aa7b4" opacity="0.33"/>
    <rect x="385" y="782" width="98" height="15" rx="3" fill="#9aa7b4" opacity="0.49"/>
    <rect x="190" y="820" width="143" height="15" rx="3" fill="#7ee787" opacity="0.30"/>
    <rect x="369" y="820" width="106" height="15" rx="3" fill="#56b6c2" opacity="0.53"/>
    <rect x="499" y="820" width="183" height="15" rx="3" fill="#7ee787" opacity="0.26"/>
    <rect x="708" y="820" width="175" height="15" rx="3" fill="#9aa7b4" opacity="0.50"/>
    <rect x="903" y="820" width="127" height="15" rx="3" fill="#7ee787" opacity="0.48"/>
    <rect x="1062" y="820" width="64" height="15" rx="3" fill="#e5c07b" opacity="0.59"/>
    <rect x="70" y="858" width="146" height="15" rx="3" fill="#56b6c2" opacity="0.44"/>
    <rect x="238" y="858" width="132" height="15" rx="3" fill="#9aa7b4" opacity="0.55"/>
    <rect x="403" y="858" width="170" height="15" rx="3" fill="#9aa7b4" opacity="0.36"/>
    <rect x="602" y="858" width="132" height="15" rx="3" fill="#56b6c2" opacity="0.26"/>
    <rect x="763" y="858" width="144" height="15" rx="3" fill="#7ee787" opacity="0.28"/>
    <rect x="946" y="858" width="188" height="15" rx="3" fill="#9aa7b4" opacity="0.58"/>
    <rect x="1156" y="858" width="164" height="15" rx="3" fill="#7ee787" opacity="0.58"/>
  <path d="M70 896 l18 14 -18 14" stroke="#7ee787" stroke-width="4" fill="none" stroke-linecap="round" opacity="0.9"/>
    <rect x="108" y="896" width="62" height="15" rx="3" fill="#7ee787" opacity="0.32"/>
    <rect x="192" y="896" width="179" height="15" rx="3" fill="#e5c07b" opacity="0.50"/>
    <rect x="398" y="896" width="114" height="15" rx="3" fill="#7ee787" opacity="0.56"/>
    <rect x="551" y="896" width="46" height="15" rx="3" fill="#9aa7b4" opacity="0.50"/>
    <rect x="624" y="896" width="59" height="15" rx="3" fill="#7ee787" opacity="0.29"/>
    <rect x="706" y="896" width="61" height="15" rx="3" fill="#e5c07b" opacity="0.31"/>
    <rect x="786" y="896" width="94" height="15" rx="3" fill="#e5c07b" opacity="0.40"/>
    <rect x="907" y="896" width="84" height="15" rx="3" fill="#9aa7b4" opacity="0.59"/>
    <rect x="70" y="934" width="172" height="15" rx="3" fill="#7ee787" opacity="0.51"/>
    <rect x="271" y="934" width="189" height="15" rx="3" fill="#e5c07b" opacity="0.26"/>
    <rect x="479" y="934" width="43" height="15" rx="3" fill="#56b6c2" opacity="0.39"/>
    <rect x="547" y="934" width="95" height="15" rx="3" fill="#e5c07b" opacity="0.31"/>
  <rect x="112" y="934" width="16" height="22" fill="#7ee787" opacity="0.9"/>
  <g fill="#000000" opacity="0.18">
    <rect y="0" width="1600" height="3"/>
    <rect y="6" width="1600" height="3"/>
    <rect y="12" width="1600" height="3"/>
    <rect y="18" width="1600" height="3"/>
    <rect y="24" width="1600" height="3"/>
    <rect y="30" width="1600" height="3"/>
    <rect y="36" width="1600" height="3"/>
    <rect y="42" width="1600" height="3"/>
    <rect y="48" width="1600" height="3"/>
    <rect y="54" width="1600" height="3"/>
    <rect y="60" width="1600" height="3"/>
    <rect y="66" width="1600" height="3"/>
    <rect y="72" width="1600" height="3"/>
    <rect y="78" width="1600" height="3"/>
    <rect y="84" width="1600" height="3"/>
    <rect y="90" width="1600" height="3"/>
    <rect y="96" width="1600" height="3"/>
    <rect y="102" width="1600" height="3"/>
    <rect y="108" width="1600" height="3"/>
    <rect y="114" width="1600" height="3"/>
    <rect y="120" width="1600" height="3"/>
    <rect y="126" width="1600" height="3"/>
    <rect y="132" width="1600" height="3"/>
    <rect y="138" width="1600" height="3"/>
    <rect y="144" width="1600" height="3"/>
    <rect y="150" width="1600" height="3"/>
    <rect y="156" width="1600" height="3"/>
    <rect y="162" width="1600" height="3"/>
    <rect y="168" width="1600" height="3"/>
    <rect y="174" width="1600" height="3"/>
    <rect y="180" width="1600" height="3"/>
    <rect y="186" width="1600" height="3"/>
    <rect y="192" width="1600" height="3"/>
    <rect y="198" width="1600" height="3"/>
    <rect y="204" width="1600" height="3"/>
    <rect y="210" width="1600" height="3"/>
    <rect y="216" width="1600" height="3"/>
    <rect y="222" width="1600" height="3"/>
    <rect y="228" width="1600" height="3"/>
    <rect y="234" width="1600" height="3"/>
    <rect y="240" width="1600" height="3"/>
    <rect y="246" width="1600" height="3"/>
    <rect y="252" width="1600" height="3"/>
    <rect y="258" width="1600" height="3"/>
    <rect y="264" width="1600" height="3"/>
    <rect y="270" width="1600" height="3"/>
    <rect y="276" width="1600" height="3"/>
    <rect y="282" width="1600" height="3"/>
    <rect y="288" width="1600" height="3"/>
    <rect y="294" width="1600" height="3"/>
    <rect y="300" width="1600" height="3"/>
    <rect y="306" width="1600" height="3"/>
    <rect y="312" width="1600" height="3"/>
    <rect y="318" width="1600" height="3"/>
    <rect y="324" width="1600" height="3"/>
    <rect y="330" width="1600" height="3"/>
    <rect y="336" width="1600" height="3"/>
    <rect y="342" width="1600" height="3"/>
    <rect y="348" width="1600" height="3"/>
    <rect y="354" width="1600" height="3"/>
    <rect y="360" width="1600" height="3"/>
    <rect y="366" width="1600" height="3"/>
    <rect y="372" width="1600" height="3"/>
    <rect y="378" width="1600" height="3"/>
    <rect y="384" width="1600" height="3"/>
    <rect y="390" width="1600" height="3"/>
    <rect y="396" width="1600" height="3"/>
    <rect y="402" width="1600" height="3"/>
    <rect y="408" width="1600" height="3"/>
    <rect y="414" width="1600" height="3"/>
    <rect y="420" width="1600" height="3"/>
    <rect y="426" width="1600" height="3"/>
    <rect y="432" width="1600" height="3"/>
    <rect y="438" width="1600" height="3"/>
    <rect y="444" width="1600" height="3"/>
    <rect y="450" width="1600" height="3"/>
    <rect y="456" width="1600" height="3"/>
    <rect y="462" width="1600" height="3"/>
    <rect y="468" width="1600" height="3"/>
    <rect y="474" width="1600" height="3"/>
    <rect y="480" width="1600" height="3"/>
    <rect y="486" width="1600" height="3"/>
    <rect y="492" width="1600" height="3"/>
    <rect y="498" width="1600" height="3"/>
    <rect y="504" width="1600" height="3"/>
    <rect y="510" width="1600" height="3"/>
    <rect y="516" width="1600" height="3"/>
    <rect y="522" width="1600" height="3"/>
    <rect y="528" width="1600" height="3"/>
    <rect y="534" width="1600" height="3"/>
    <rect y="540" width="1600" height="3"/>
    <rect y="546" width="1600" height="3"/>
    <rect y="552" width="1600" height="3"/>
    <rect y="558" width="1600" height="3"/>
    <rect y="564" width="1600" height="3"/>
    <rect y="570" width="1600" height="3"/>
    <rect y="576" width="1600" height="3"/>
    <rect y="582" width="1600" height="3"/>
    <rect y="588" width="1600" height="3"/>
    <rect y="594" width="1600" height="3"/>
    <rect y="600" width="1600" height="3"/>
    <rect y="606" width="1600" height="3"/>
    <rect y="612" width="1600" height="3"/>
    <rect y="618" width="1600" height="3"/>
    <rect y="624" width="1600" height="3"/>
    <rect y="630" width="1600" height="3"/>
    <rect y="636" width="1600" height="3"/>
    <rect y="642" width="1600" height="3"/>
    <rect y="648" width="1600" height="3"/>
    <rect y="654" width="1600" height="3"/>
    <rect y="660" width="1600" height="3"/>
    <rect y="666" width="1600" height="3"/>
    <rect y="672" width="1600" height="3"/>
    <rect y="678" width="1600" height="3"/>
    <rect y="684" width="1600" height="3"/>
    <rect y="690" width="1600" height="3"/>
    <rect y="696" width="1600" height="3"/>
    <rect y="702" width="1600" height="3"/>
    <rect y="708" width="1600" height="3"/>
    <rect y="714" width="1600" height="3"/>
    <rect y="720" width="1600" height="3"/>
    <rect y="726" width="1600" height="3"/>
    <rect y="732" width="1600" height="3"/>
    <rect y="738" width="1600" height="3"/>
    <rect y="744" width="1600" height="3"/>
    <rect y="750" width="1600" height="3"/>
    <rect y="756" width="1600" height="3"/>
    <rect y="762" width="1600" height="3"/>
    <rect y="768" width="1600" height="3"/>
    <rect y="774" width="1600" height="3"/>
    <rect y="780" width="1600" height="3"/>
    <rect y="786" width="1600" height="3"/>
    <rect y="792" width="1600" height="3"/>
    <rect y="798" width="1600" height="3"/>
    <rect y="804" width="1600" height="3"/>
    <rect y="810" width="1600" height="3"/>
    <rect y="816" width="1600" height="3"/>
    <rect y="822" width="1600" height="3"/>
    <rect y="828" width="1600" height="3"/>
    <rect y="834" width="1600" height="3"/>
    <rect y="840" width="1600" height="3"/>
    <rect y="846" width="1600" height="3"/>
    <rect y="852" width="1600" height="3"/>
    <rect y="858" width="1600" height="3"/>
    <rect y="864" width="1600" height="3"/>
    <rect y="870" width="1600" height="3"/>
    <rect y="876" width="1600" height="3"/>
    <rect y="882" width="1600" height="3"/>
    <rect y="888" width="1600" height="3"/>
    <rect y="894" width="1600" height="3"/>
    <rect y="900" width="1600" height="3"/>
    <rect y="906" width="1600" height="3"/>
    <rect y="912" width="1600" height="3"/>
    <rect y="918" width="1600" height="3"/>
    <rect y="924" width="1600" height="3"/>
    <rect y="930" width="1600" height="3"/>
    <rect y="936" width="1600" height="3"/>
    <rect y="942" width="1600" height="3"/>
    <rect y="948" width="1600" height="3"/>
    <rect y="954" width="1600" height="3"/>
    <rect y="960" width="1600" height="3"/>
    <rect y="966" width="1600" height="3"/>
    <rect y="972" width="1600" height="3"/>
    <rect y="978" width="1600" height="3"/>
    <rect y="984" width="1600" height="3"/>
    <rect y="990" width="1600" height="3"/>
    <rect y="996" width="1600" height="3"/>
  </g>
</svg>
